<svg xmlns="http://www.w3.org/2000/svg" width="1200" height="630" viewBox="0 0 1200 630">
  <defs>
    <linearGradient id="bg" x1="0" y1="0" x2="1" y2="1">
      <stop offset="0%" stop-color="#070E1C"/>
      <stop offset="100%" stop-color="#0F1E35"/>
    </linearGradient>
    <radialGradient id="glow" cx="72%" cy="50%" r="42%">
      <stop offset="0%" stop-color="#E8320A" stop-opacity="0.16"/>
      <stop offset="100%" stop-color="#E8320A" stop-opacity="0"/>
    </radialGradient>
    <radialGradient id="glow2" cx="16%" cy="22%" r="30%">
      <stop offset="0%" stop-color="#1E4A8A" stop-opacity="0.22"/>
      <stop offset="100%" stop-color="#0A1628" stop-opacity="0"/>
    </radialGradient>
  </defs>

  <rect width="1200" height="630" fill="url(#bg)"/>
  <rect width="1200" height="630" fill="url(#glow2)"/>
  <rect width="1200" height="630" fill="url(#glow)"/>

  <!-- Grid -->
  <g stroke="#1E293B" stroke-width="1" opacity="0.4">
    <line x1="580" y1="70"  x2="1160" y2="70"/>
    <line x1="580" y1="150" x2="1160" y2="150"/>
    <line x1="580" y1="230" x2="1160" y2="230"/>
    <line x1="580" y1="310" x2="1160" y2="310"/>
    <line x1="580" y1="390" x2="1160" y2="390"/>
    <line x1="580" y1="470" x2="1160" y2="470"/>
    <line x1="580" y1="550" x2="1160" y2="550"/>
    <line x1="630"  y1="40" x2="630"  y2="590"/>
    <line x1="710"  y1="40" x2="710"  y2="590"/>
    <line x1="790"  y1="40" x2="790"  y2="590"/>
    <line x1="870"  y1="40" x2="870"  y2="590"/>
    <line x1="950"  y1="40" x2="950"  y2="590"/>
    <line x1="1030" y1="40" x2="1030" y2="590"/>
    <line x1="1110" y1="40" x2="1110" y2="590"/>
  </g>

  <!-- Lean stack cost breakdown -->
  <rect x="640" y="78" width="500" height="44" rx="6" fill="#1A2540" stroke="#E8320A" stroke-width="1"/>
  <text x="660" y="97" font-family="'DM Sans','Inter',monospace" font-size="11" font-weight="700" fill="#E8320A" letter-spacing="1">SENDING DOMAIN</text>
  <text x="660" y="113" font-family="'DM Sans','Inter',monospace" font-size="13" fill="#FAFAFA">~$10 / year</text>
  <text x="1112" y="105" text-anchor="end" font-family="'DM Sans','Inter',monospace" font-size="13" font-weight="700" fill="#16a34a">✓ cheap</text>

  <rect x="640" y="134" width="500" height="44" rx="6" fill="#1A2540" stroke="#1E3A5F" stroke-width="1"/>
  <text x="660" y="153" font-family="'DM Sans','Inter',monospace" font-size="11" font-weight="700" fill="#94A3B8" letter-spacing="1">LEAD SOURCE</text>
  <text x="660" y="169" font-family="'DM Sans','Inter',monospace" font-size="13" fill="#FAFAFA">GitHub bios · Dev.to tags · LinkedIn</text>
  <text x="1112" y="161" text-anchor="end" font-family="'DM Sans','Inter',monospace" font-size="13" font-weight="700" fill="#16a34a">✓ free</text>

  <rect x="640" y="190" width="500" height="44" rx="6" fill="#1A2540" stroke="#1E3A5F" stroke-width="1"/>
  <text x="660" y="209" font-family="'DM Sans','Inter',monospace" font-size="11" font-weight="700" fill="#94A3B8" letter-spacing="1">OUTREACH TOOL</text>
  <text x="660" y="225" font-family="'DM Sans','Inter',monospace" font-size="13" fill="#FAFAFA">free tier · source, score, send</text>
  <text x="1112" y="217" text-anchor="end" font-family="'DM Sans','Inter',monospace" font-size="13" font-weight="700" fill="#16a34a">✓ free</text>

  <rect x="640" y="246" width="500" height="44" rx="6" fill="#0F1828" stroke="#1E293B" stroke-width="1"/>
  <text x="660" y="265" font-family="'DM Sans','Inter',monospace" font-size="11" font-weight="700" fill="#6B7E99" letter-spacing="1">CONTENT (OPTIONAL)</text>
  <text x="660" y="281" font-family="'DM Sans','Inter',monospace" font-size="13" fill="#6B7E99">1 post/week · build in public</text>
  <text x="1112" y="273" text-anchor="end" font-family="'DM Sans','Inter',monospace" font-size="13" font-weight="700" fill="#16a34a">✓ free</text>

  <!-- Divider + total -->
  <line x1="640" y1="308" x2="1140" y2="308" stroke="#1E293B" stroke-width="1"/>
  <rect x="640" y="320" width="500" height="52" rx="8" fill="#1E2D4A" stroke="#E8320A" stroke-width="1"/>
  <text x="660" y="342" font-family="'DM Sans','Inter',sans-serif" font-size="11" font-weight="700" fill="#E8320A" letter-spacing="1">TOTAL TOOL COST</text>
  <text x="660" y="364" font-family="'DM Sans','Inter',sans-serif" font-size="22" font-weight="800" fill="#FAFAFA">≈ $0</text>
  <text x="1000" y="364" font-family="'DM Sans','Inter',sans-serif" font-size="13" fill="#94A3B8">The real cost is your time</text>

  <!-- Weekly loop visual -->
  <rect x="640" y="392" width="500" height="72" rx="8" fill="#0F1828" stroke="#1E293B" stroke-width="1"/>
  <text x="660" y="414" font-family="'DM Sans','Inter',sans-serif" font-size="11" font-weight="700" fill="#94A3B8" letter-spacing="1">WEEKLY LOOP  (≈ 3 HRS)</text>
  <rect x="660" y="424" width="72" height="24" rx="4" fill="#1E293B"/>
  <text x="696" y="440" text-anchor="middle" font-family="'DM Sans','Inter',monospace" font-size="10" fill="#FAFAFA">source 20–50</text>
  <text x="742" y="438" font-family="'DM Sans','Inter',sans-serif" font-size="14" fill="#E8320A">→</text>
  <rect x="758" y="424" width="72" height="24" rx="4" fill="#1E293B"/>
  <text x="794" y="440" text-anchor="middle" font-family="'DM Sans','Inter',monospace" font-size="10" fill="#FAFAFA">write specific</text>
  <text x="840" y="438" font-family="'DM Sans','Inter',sans-serif" font-size="14" fill="#E8320A">→</text>
  <rect x="856" y="424" width="72" height="24" rx="4" fill="#1E293B"/>
  <text x="892" y="440" text-anchor="middle" font-family="'DM Sans','Inter',monospace" font-size="10" fill="#FAFAFA">follow up ×2</text>
  <text x="938" y="438" font-family="'DM Sans','Inter',sans-serif" font-size="14" fill="#E8320A">→</text>
  <rect x="954" y="424" width="72" height="24" rx="4" fill="#1E2D4A" stroke="#E8320A" stroke-width="1"/>
  <text x="990" y="440" text-anchor="middle" font-family="'DM Sans','Inter',monospace" font-size="10" fill="#E8320A">reply 🎉</text>

  <!-- Circuit traces -->
  <g fill="none" stroke="#1E3A5F" stroke-width="1.5" opacity="0.5">
    <path d="M710 490 L710 550 L790 550"/>
    <path d="M950 490 L950 550 L1030 550 L1030 490"/>
    <path d="M1110 490 L1110 550"/>
  </g>
  <g fill="#E8320A" opacity="0.85"><circle cx="1030" cy="490" r="4"/></g>
  <g fill="none" stroke="#E8320A" stroke-width="1" opacity="0.3"><circle cx="1030" cy="490" r="11"/></g>

  <!-- Left side text -->
  <rect x="80" y="88" width="112" height="30" rx="6" fill="#E8320A"/>
  <text x="136" y="108" text-anchor="middle" font-family="'DM Sans','Inter',sans-serif" font-size="12" font-weight="700" fill="#FAFAFA" letter-spacing="1">MARKETING</text>
  <text x="206" y="108" font-family="'DM Sans','Inter',sans-serif" font-size="12" fill="#94A3B8" letter-spacing="2">·  JUNE 2026</text>

  <text x="80" y="205" font-family="'DM Sans','Inter','Helvetica Neue',sans-serif" font-size="66" font-weight="800" fill="#FAFAFA">Outbound</text>
  <text x="80" y="283" font-family="'DM Sans','Inter','Helvetica Neue',sans-serif" font-size="66" font-weight="800" fill="#E8320A">on $0</text>

  <text x="80" y="340" font-family="'DM Sans','Inter',sans-serif" font-size="23" fill="#94A3B8">The lean motion for</text>
  <text x="80" y="370" font-family="'DM Sans','Inter',sans-serif" font-size="23" fill="#94A3B8">bootstrapped founders.</text>

  <line x1="80" y1="400" x2="460" y2="400" stroke="#1E293B" stroke-width="1"/>

  <rect x="80"  y="416" width="130" height="36" rx="18" fill="#1E293B"/>
  <text x="145" y="439" text-anchor="middle" font-family="'DM Sans','Inter',sans-serif" font-size="13" fill="#FAFAFA">near-zero cost</text>
  <rect x="222" y="416" width="118" height="36" rx="18" fill="#1E293B"/>
  <text x="281" y="439" text-anchor="middle" font-family="'DM Sans','Inter',sans-serif" font-size="13" fill="#FAFAFA">public sources</text>
  <rect x="352" y="416" width="110" height="36" rx="18" fill="#1E293B"/>
  <text x="407" y="439" text-anchor="middle" font-family="'DM Sans','Inter',sans-serif" font-size="13" fill="#FAFAFA">weekly loop</text>

  <text x="80"  y="598" font-family="'DM Sans','Inter',sans-serif" font-size="13" font-weight="700" fill="#E8320A" letter-spacing="3">OZIGI</text>
  <text x="136" y="598" font-family="'DM Sans','Inter',sans-serif" font-size="13" fill="#94A3B8" opacity="0.7">  ·  blog.ozigi.app</text>

  <rect x="0" y="0" width="6" height="630" fill="#E8320A"/>
</svg>
