<svg xmlns="http://www.w3.org/2000/svg" width="1200" height="630" viewBox="0 0 1200 630">
  <defs>
    <linearGradient id="bg" x1="0" y1="0" x2="1" y2="1">
      <stop offset="0%" stop-color="#070E1C"/>
      <stop offset="100%" stop-color="#0F1E35"/>
    </linearGradient>
    <radialGradient id="glow" cx="73%" cy="50%" r="42%">
      <stop offset="0%" stop-color="#E8320A" stop-opacity="0.18"/>
      <stop offset="100%" stop-color="#E8320A" stop-opacity="0"/>
    </radialGradient>
    <radialGradient id="glow2" cx="15%" cy="22%" r="30%">
      <stop offset="0%" stop-color="#1E4A8A" stop-opacity="0.22"/>
      <stop offset="100%" stop-color="#0A1628" stop-opacity="0"/>
    </radialGradient>
  </defs>

  <rect width="1200" height="630" fill="url(#bg)"/>
  <rect width="1200" height="630" fill="url(#glow2)"/>
  <rect width="1200" height="630" fill="url(#glow)"/>

  <!-- Grid -->
  <g stroke="#1E293B" stroke-width="1" opacity="0.4">
    <line x1="580" y1="70"  x2="1160" y2="70"/>
    <line x1="580" y1="150" x2="1160" y2="150"/>
    <line x1="580" y1="230" x2="1160" y2="230"/>
    <line x1="580" y1="310" x2="1160" y2="310"/>
    <line x1="580" y1="390" x2="1160" y2="390"/>
    <line x1="580" y1="470" x2="1160" y2="470"/>
    <line x1="580" y1="550" x2="1160" y2="550"/>
    <line x1="630"  y1="40" x2="630"  y2="590"/>
    <line x1="710"  y1="40" x2="710"  y2="590"/>
    <line x1="790"  y1="40" x2="790"  y2="590"/>
    <line x1="870"  y1="40" x2="870"  y2="590"/>
    <line x1="950"  y1="40" x2="950"  y2="590"/>
    <line x1="1030" y1="40" x2="1030" y2="590"/>
    <line x1="1110" y1="40" x2="1110" y2="590"/>
  </g>

  <!-- Banned word tags (right side) — same visual language as the lexicon article -->
  <!-- Row 1: filler openers -->
  <rect x="640" y="80" width="310" height="32" rx="6" fill="#1E293B"/>
  <text x="795" y="101" text-anchor="middle" font-family="'DM Sans','Inter',monospace" font-size="13" fill="#94A3B8">I hope this email finds you well</text>
  <line x1="655" y1="96" x2="935" y2="96" stroke="#E8320A" stroke-width="1.5"/>

  <rect x="964" y="80" width="176" height="32" rx="6" fill="#1E293B"/>
  <text x="1052" y="101" text-anchor="middle" font-family="'DM Sans','Inter',monospace" font-size="13" fill="#94A3B8">I wanted to reach out</text>
  <line x1="979" y1="96" x2="1125" y2="96" stroke="#E8320A" stroke-width="1.5"/>

  <!-- Row 2: filler words -->
  <rect x="640" y="124" width="120" height="32" rx="6" fill="#1E293B"/>
  <text x="700" y="145" text-anchor="middle" font-family="'DM Sans','Inter',monospace" font-size="13" fill="#94A3B8">robust</text>
  <line x1="655" y1="140" x2="745" y2="140" stroke="#E8320A" stroke-width="1.5"/>

  <rect x="772" y="124" width="120" height="32" rx="6" fill="#1E293B"/>
  <text x="832" y="145" text-anchor="middle" font-family="'DM Sans','Inter',monospace" font-size="13" fill="#94A3B8">seamlessly</text>
  <line x1="787" y1="140" x2="877" y2="140" stroke="#E8320A" stroke-width="1.5"/>

  <rect x="904" y="124" width="100" height="32" rx="6" fill="#1E293B"/>
  <text x="954" y="145" text-anchor="middle" font-family="'DM Sans','Inter',monospace" font-size="13" fill="#94A3B8">leverage</text>
  <line x1="919" y1="140" x2="989" y2="140" stroke="#E8320A" stroke-width="1.5"/>

  <rect x="1016" y="124" width="124" height="32" rx="6" fill="#1E293B"/>
  <text x="1078" y="145" text-anchor="middle" font-family="'DM Sans','Inter',monospace" font-size="13" fill="#94A3B8">game-changing</text>
  <line x1="1031" y1="140" x2="1125" y2="140" stroke="#E8320A" stroke-width="1.5"/>

  <!-- Row 3: more filler -->
  <rect x="640" y="168" width="100" height="32" rx="6" fill="#1E293B"/>
  <text x="690" y="189" text-anchor="middle" font-family="'DM Sans','Inter',monospace" font-size="13" fill="#94A3B8">synergy</text>
  <line x1="655" y1="184" x2="725" y2="184" stroke="#E8320A" stroke-width="1.5"/>

  <rect x="752" y="168" width="90" height="32" rx="6" fill="#1E293B"/>
  <text x="797" y="189" text-anchor="middle" font-family="'DM Sans','Inter',monospace" font-size="13" fill="#94A3B8">unlock</text>
  <line x1="767" y1="184" x2="827" y2="184" stroke="#E8320A" stroke-width="1.5"/>

  <rect x="854" y="168" width="120" height="32" rx="6" fill="#1E293B"/>
  <text x="914" y="189" text-anchor="middle" font-family="'DM Sans','Inter',monospace" font-size="13" fill="#94A3B8">touch base</text>
  <line x1="869" y1="184" x2="959" y2="184" stroke="#E8320A" stroke-width="1.5"/>

  <rect x="986" y="168" width="154" height="32" rx="6" fill="#1E293B"/>
  <text x="1063" y="189" text-anchor="middle" font-family="'DM Sans','Inter',monospace" font-size="13" fill="#94A3B8">circle back</text>
  <line x1="1001" y1="184" x2="1125" y2="184" stroke="#E8320A" stroke-width="1.5"/>

  <!-- Divider -->
  <line x1="640" y1="220" x2="1140" y2="220" stroke="#1E293B" stroke-width="1"/>

  <!-- Human email example -->
  <rect x="640" y="232" width="500" height="120" rx="8" fill="#0F1828" stroke="#1E3A5F" stroke-width="1"/>
  <text x="660" y="254" font-family="'DM Sans','Inter',monospace" font-size="11" font-weight="700" fill="#94A3B8" letter-spacing="1">HUMAN VERSION</text>
  <text x="660" y="278" font-family="'DM Sans','Inter',sans-serif" font-size="13" fill="#FAFAFA">Subject: your rate-limiting issue on the api client</text>
  <text x="660" y="302" font-family="'DM Sans','Inter',sans-serif" font-size="12" fill="#94A3B8">Hi Sam, I saw your open issue about rate limiting</text>
  <text x="660" y="320" font-family="'DM Sans','Inter',sans-serif" font-size="12" fill="#94A3B8">on your TypeScript client. We hit the same wall</text>
  <text x="660" y="338" font-family="'DM Sans','Inter',sans-serif" font-size="12" fill="#94A3B8">last year. Happy to share what worked. No pitch.</text>

  <!-- Stats row -->
  <rect x="640" y="368" width="238" height="60" rx="8" fill="#1A2540"/>
  <text x="759" y="390" text-anchor="middle" font-family="'DM Sans','Inter',sans-serif" font-size="11" font-weight="700" fill="#E8320A" letter-spacing="1">GENERIC</text>
  <text x="759" y="413" text-anchor="middle" font-family="'DM Sans','Inter',sans-serif" font-size="22" font-weight="800" fill="#FAFAFA">~9%</text>
  <text x="759" y="430" text-anchor="middle" font-family="'DM Sans','Inter',sans-serif" font-size="11" fill="#94A3B8">reply rate</text>

  <text x="898" y="402" text-anchor="middle" font-family="'DM Sans','Inter',sans-serif" font-size="20" font-weight="800" fill="#E8320A">→</text>

  <rect x="902" y="368" width="238" height="60" rx="8" fill="#1E2D4A" stroke="#E8320A" stroke-width="1"/>
  <text x="1021" y="390" text-anchor="middle" font-family="'DM Sans','Inter',sans-serif" font-size="11" font-weight="700" fill="#E8320A" letter-spacing="1">PERSONALIZED</text>
  <text x="1021" y="413" text-anchor="middle" font-family="'DM Sans','Inter',sans-serif" font-size="22" font-weight="800" fill="#FAFAFA">~18%</text>
  <text x="1021" y="430" text-anchor="middle" font-family="'DM Sans','Inter',sans-serif" font-size="11" fill="#94A3B8">reply rate</text>

  <!-- Circuit traces -->
  <g fill="none" stroke="#1E3A5F" stroke-width="1.5" opacity="0.5">
    <path d="M710 470 L710 550 L790 550"/>
    <path d="M950 470 L950 550 L1030 550 L1030 470"/>
    <path d="M1110 470 L1110 550"/>
  </g>
  <g fill="#E8320A" opacity="0.85"><circle cx="1030" cy="470" r="5"/></g>
  <g fill="none" stroke="#E8320A" stroke-width="1" opacity="0.3"><circle cx="1030" cy="470" r="12"/></g>
  <g fill="#1E3A5F" opacity="0.9">
    <circle cx="790" cy="550" r="4"/>
    <circle cx="1110" cy="550" r="4"/>
  </g>

  <!-- Left side text -->
  <rect x="80" y="88" width="112" height="30" rx="6" fill="#E8320A"/>
  <text x="136" y="108" text-anchor="middle" font-family="'DM Sans','Inter',sans-serif" font-size="12" font-weight="700" fill="#FAFAFA" letter-spacing="1">MARKETING</text>
  <text x="206" y="108" font-family="'DM Sans','Inter',sans-serif" font-size="12" fill="#94A3B8" letter-spacing="2">·  JUNE 2026</text>

  <text x="80" y="200" font-family="'DM Sans','Inter','Helvetica Neue',sans-serif" font-size="66" font-weight="800" fill="#FAFAFA">Cold Email</text>
  <text x="80" y="278" font-family="'DM Sans','Inter','Helvetica Neue',sans-serif" font-size="66" font-weight="800" fill="#FAFAFA">That Sounds</text>
  <text x="80" y="356" font-family="'DM Sans','Inter','Helvetica Neue',sans-serif" font-size="66" font-weight="800" fill="#E8320A">Human</text>

  <text x="80" y="410" font-family="'DM Sans','Inter',sans-serif" font-size="23" fill="#94A3B8">Ban the filler. Write from</text>
  <text x="80" y="440" font-family="'DM Sans','Inter',sans-serif" font-size="23" fill="#94A3B8">something true.</text>

  <line x1="80" y1="468" x2="460" y2="468" stroke="#1E293B" stroke-width="1"/>

  <rect x="80"  y="484" width="152" height="36" rx="18" fill="#1E293B"/>
  <text x="156" y="507" text-anchor="middle" font-family="'DM Sans','Inter',sans-serif" font-size="13" fill="#FAFAFA">2× reply rates</text>
  <rect x="244" y="484" width="136" height="36" rx="18" fill="#1E293B"/>
  <text x="312" y="507" text-anchor="middle" font-family="'DM Sans','Inter',sans-serif" font-size="13" fill="#FAFAFA">banned lexicon</text>
  <rect x="392" y="484" width="90" height="36" rx="18" fill="#1E293B"/>
  <text x="437" y="507" text-anchor="middle" font-family="'DM Sans','Inter',sans-serif" font-size="13" fill="#FAFAFA">5% club</text>

  <text x="80"  y="598" font-family="'DM Sans','Inter',sans-serif" font-size="13" font-weight="700" fill="#E8320A" letter-spacing="3">OZIGI</text>
  <text x="136" y="598" font-family="'DM Sans','Inter',sans-serif" font-size="13" fill="#94A3B8" opacity="0.7">  ·  blog.ozigi.app</text>

  <rect x="0" y="0" width="6" height="630" fill="#E8320A"/>
</svg>
