<svg xmlns="http://www.w3.org/2000/svg" width="1200" height="630" viewBox="0 0 1200 630">
  <defs>
    <linearGradient id="bg" x1="0" y1="0" x2="1" y2="1">
      <stop offset="0%" stop-color="#070E1C"/>
      <stop offset="100%" stop-color="#0A1A2E"/>
    </linearGradient>
    <radialGradient id="glow" cx="72%" cy="50%" r="44%">
      <stop offset="0%" stop-color="#6366F1" stop-opacity="0.15"/>
      <stop offset="100%" stop-color="#6366F1" stop-opacity="0"/>
    </radialGradient>
  </defs>

  <rect width="1200" height="630" fill="url(#bg)"/>
  <rect width="1200" height="630" fill="url(#glow)"/>

  <!-- Grid -->
  <g stroke="#1E293B" stroke-width="1" opacity="0.4">
    <line x1="580" y1="60"  x2="1160" y2="60"/>
    <line x1="580" y1="150" x2="1160" y2="150"/>
    <line x1="580" y1="240" x2="1160" y2="240"/>
    <line x1="580" y1="330" x2="1160" y2="330"/>
    <line x1="580" y1="420" x2="1160" y2="420"/>
    <line x1="580" y1="510" x2="1160" y2="510"/>
    <line x1="640"  y1="40" x2="640"  y2="590"/>
    <line x1="730"  y1="40" x2="730"  y2="590"/>
    <line x1="820"  y1="40" x2="820"  y2="590"/>
    <line x1="910"  y1="40" x2="910"  y2="590"/>
    <line x1="1000" y1="40" x2="1000" y2="590"/>
    <line x1="1090" y1="40" x2="1090" y2="590"/>
  </g>

  <!-- Circuit traces -->
  <g fill="none" stroke="#1E2A3F" stroke-width="1.5" opacity="0.5">
    <path d="M910 60 L910 150 L1000 150 L1000 240"/>
    <path d="M640 150 L730 150 L730 240 L820 240"/>
    <path d="M1090 150 L1090 240 L1000 240"/>
    <path d="M640 330 L730 330 L730 420 L820 420"/>
    <path d="M1000 330 L1090 330 L1090 420"/>
    <path d="M640 510 L730 510 L730 420"/>
  </g>
  <g fill="#1E3A5F" opacity="0.8">
    <circle cx="910"  cy="150" r="4"/>
    <circle cx="730"  cy="240" r="4"/>
    <circle cx="820"  cy="240" r="4"/>
    <circle cx="820"  cy="420" r="4"/>
  </g>
  <g fill="#6366F1" opacity="0.85">
    <circle cx="1000" cy="240" r="5"/>
    <circle cx="1090" cy="240" r="5"/>
    <circle cx="1090" cy="420" r="5"/>
    <circle cx="730"  cy="420" r="5"/>
  </g>
  <g fill="none" stroke="#6366F1" stroke-width="1" opacity="0.25">
    <circle cx="1000" cy="240" r="13"/>
    <circle cx="1090" cy="420" r="13"/>
  </g>

  <!-- 8 tool rows — use-case tagged -->
  <g font-family="'DM Sans','Inter',sans-serif">

    <!-- Tool 1 -->
    <rect x="640" y="68" width="500" height="36" rx="6" fill="#1E293B" stroke="#6366F1" stroke-width="1.5"/>
    <rect x="640" y="68" width="5"   height="36" rx="2" fill="#6366F1"/>
    <text x="656" y="85" font-size="13" font-weight="600" fill="#FAFAFA">Claude.ai</text>
    <text x="656" y="99" font-size="10" fill="#94A3B8">Long-form drafts, structured docs, code-adjacent writing</text>
    <rect x="1064" y="74" width="62" height="20" rx="5" fill="#6366F1" opacity="0.2"/>
    <text x="1095" y="88" text-anchor="middle" font-size="10" font-weight="600" fill="#6366F1">Free</text>

    <!-- Tool 2 -->
    <rect x="640" y="114" width="500" height="36" rx="6" fill="#1E293B" stroke="#6366F1" stroke-width="1.5"/>
    <rect x="640" y="114" width="5"   height="36" rx="2" fill="#6366F1"/>
    <text x="656" y="131" font-size="13" font-weight="600" fill="#FAFAFA">ChatGPT Free</text>
    <text x="656" y="145" font-size="10" fill="#94A3B8">Technical briefs, docs, README generation</text>
    <rect x="1064" y="120" width="62" height="20" rx="5" fill="#6366F1" opacity="0.2"/>
    <text x="1095" y="134" text-anchor="middle" font-size="10" font-weight="600" fill="#6366F1">Free</text>

    <!-- Tool 3 -->
    <rect x="640" y="160" width="500" height="36" rx="6" fill="#1E293B" stroke="#1E3A5F" stroke-width="1"/>
    <rect x="640" y="160" width="5"   height="36" rx="2" fill="#94A3B8"/>
    <text x="656" y="177" font-size="13" font-weight="600" fill="#FAFAFA">Notion AI</text>
    <text x="656" y="191" font-size="10" fill="#94A3B8">Knowledge base, roadmap docs, internal wikis</text>
    <rect x="1064" y="166" width="62" height="20" rx="5" fill="#1E293B" stroke="#94A3B8" stroke-width="1"/>
    <text x="1095" y="180" text-anchor="middle" font-size="10" fill="#94A3B8">Freemium</text>

    <!-- Tool 4 -->
    <rect x="640" y="206" width="500" height="36" rx="6" fill="#1E293B" stroke="#1E3A5F" stroke-width="1"/>
    <rect x="640" y="206" width="5"   height="36" rx="2" fill="#94A3B8"/>
    <text x="656" y="223" font-size="13" font-weight="600" fill="#FAFAFA">Perplexity AI</text>
    <text x="656" y="237" font-size="10" fill="#94A3B8">Research, competitor analysis, market validation</text>
    <rect x="1064" y="212" width="62" height="20" rx="5" fill="#6366F1" opacity="0.2"/>
    <text x="1095" y="226" text-anchor="middle" font-size="10" font-weight="600" fill="#6366F1">Free</text>

    <!-- Tool 5 -->
    <rect x="640" y="252" width="500" height="36" rx="6" fill="#1E293B" stroke="#1E3A5F" stroke-width="1"/>
    <rect x="640" y="252" width="5"   height="36" rx="2" fill="#94A3B8"/>
    <text x="656" y="269" font-size="13" font-weight="600" fill="#FAFAFA">Gemini Free</text>
    <text x="656" y="283" font-size="10" fill="#94A3B8">Multimodal input, data-heavy content, Google Docs</text>
    <rect x="1064" y="258" width="62" height="20" rx="5" fill="#6366F1" opacity="0.2"/>
    <text x="1095" y="272" text-anchor="middle" font-size="10" font-weight="600" fill="#6366F1">Free</text>

    <!-- Tool 6 -->
    <rect x="640" y="298" width="500" height="36" rx="6" fill="#1E293B" stroke="#1E3A5F" stroke-width="1"/>
    <rect x="640" y="298" width="5"   height="36" rx="2" fill="#94A3B8"/>
    <text x="656" y="315" font-size="13" font-weight="600" fill="#FAFAFA">Hashnode AI</text>
    <text x="656" y="329" font-size="10" fill="#94A3B8">Dev blogs, technical tutorials, SEO-optimised posts</text>
    <rect x="1064" y="304" width="62" height="20" rx="5" fill="#6366F1" opacity="0.2"/>
    <text x="1095" y="318" text-anchor="middle" font-size="10" font-weight="600" fill="#6366F1">Free</text>

    <!-- Tool 7 -->
    <rect x="640" y="344" width="500" height="36" rx="6" fill="#1E293B" stroke="#1E3A5F" stroke-width="1"/>
    <rect x="640" y="344" width="5"   height="36" rx="2" fill="#94A3B8"/>
    <text x="656" y="361" font-size="13" font-weight="600" fill="#FAFAFA">Rytr Free</text>
    <text x="656" y="375" font-size="10" fill="#94A3B8">Short-form, social posts, quick launch copy</text>
    <rect x="1064" y="350" width="62" height="20" rx="5" fill="#1E293B" stroke="#94A3B8" stroke-width="1"/>
    <text x="1095" y="364" text-anchor="middle" font-size="10" fill="#94A3B8">10k/mo</text>

    <!-- Tool 8 -->
    <rect x="640" y="390" width="500" height="36" rx="6" fill="#1E293B" stroke="#E8320A" stroke-width="1.5"/>
    <rect x="640" y="390" width="5"   height="36" rx="2" fill="#E8320A"/>
    <text x="656" y="407" font-size="13" font-weight="600" fill="#E8320A">Ozigi</text>
    <text x="656" y="421" font-size="10" fill="#94A3B8">Longform, banned lexicon, technical brief output</text>
    <rect x="1064" y="396" width="62" height="20" rx="5" fill="#E8320A" opacity="0.2" stroke="#E8320A" stroke-width="1"/>
    <text x="1095" y="410" text-anchor="middle" font-size="10" font-weight="600" fill="#E8320A">Free beta</text>

  </g>

  <!-- Callout -->
  <rect x="640" y="444" width="500" height="44" rx="10" fill="#1E293B"/>
  <text x="890" y="462" text-anchor="middle" font-family="'DM Sans','Inter',sans-serif" font-size="11" font-weight="600" fill="#6366F1" letter-spacing="1">FOR TECHNICAL FOUNDERS</text>
  <text x="890" y="479" text-anchor="middle" font-family="'DM Sans','Inter',sans-serif" font-size="12" fill="#FAFAFA">The bottleneck isn't shipping — it's explaining what you built.</text>

  <!-- Left accent bar -->
  <rect x="0" y="0" width="6" height="630" fill="#E8320A"/>

  <!-- Category -->
  <text x="80" y="88" font-family="'DM Sans','Inter',sans-serif" font-size="12" font-weight="600" fill="#94A3B8" letter-spacing="2">NO. 06</text>
  <text x="80" y="118" font-family="'DM Sans','Inter',sans-serif" font-size="14" font-weight="600" fill="#E8320A" letter-spacing="3">TOOLS ROUNDUP  ·  2026</text>

  <!-- Title -->
  <text x="80" y="210" font-family="'DM Sans','Inter','Helvetica Neue',sans-serif" font-size="66" font-weight="800" fill="#6366F1">8 Free AI</text>
  <text x="80" y="286" font-family="'DM Sans','Inter','Helvetica Neue',sans-serif" font-size="66" font-weight="800" fill="#FAFAFA">Writing Tools</text>
  <text x="80" y="362" font-family="'DM Sans','Inter','Helvetica Neue',sans-serif" font-size="36" font-weight="700" fill="#FAFAFA">for Technical Founders.</text>

  <text x="80" y="414" font-family="'DM Sans','Inter',sans-serif" font-size="21" fill="#94A3B8">Ranked by use case — not hype.</text>
  <text x="80" y="442" font-family="'DM Sans','Inter',sans-serif" font-size="21" fill="#94A3B8">All free. All tested.</text>

  <line x1="80" y1="468" x2="460" y2="468" stroke="#1E293B" stroke-width="1"/>

  <rect x="80"  y="484" width="130" height="36" rx="18" fill="#1E293B"/>
  <text x="145" y="507" text-anchor="middle" font-family="'DM Sans','Inter',sans-serif" font-size="13" fill="#FAFAFA">Tools Roundup</text>
  <rect x="222" y="484" width="140" height="36" rx="18" fill="#1E293B"/>
  <text x="292" y="507" text-anchor="middle" font-family="'DM Sans','Inter',sans-serif" font-size="13" fill="#6366F1">For founders</text>

  <text x="80"  y="598" font-family="'DM Sans','Inter',sans-serif" font-size="13" font-weight="700" fill="#E8320A" letter-spacing="3">OZIGI</text>
  <text x="136" y="598" font-family="'DM Sans','Inter',sans-serif" font-size="13" fill="#94A3B8" opacity="0.7">  ·  blog.ozigi.app</text>
</svg>
